<svg width="586" height="587" xmlns="http://www.w3.org/2000/svg" xmlns:xlink="http://www.w3.org/1999/xlink" overflow="hidden"><defs><clipPath id="clip0"><rect x="3412" y="1487" width="586" height="587"/></clipPath></defs><g clip-path="url(#clip0)" transform="translate(-3412 -1487)"><path d="M3416.5 1543.26C3416.5 1514.67 3439.67 1491.5 3468.26 1491.5L3941.74 1491.5C3970.33 1491.5 3993.5 1514.67 3993.5 1543.26L3993.5 2017.74C3993.5 2046.33 3970.33 2069.5 3941.74 2069.5L3468.26 2069.5C3439.67 2069.5 3416.5 2046.33 3416.5 2017.74Z" stroke="#D8D9D8" stroke-width="9.16667" stroke-linejoin="round" stroke-miterlimit="10" fill="#146DCE" fill-rule="evenodd"/><path d="M3598 1865.56 3598 1784.27C3598 1780.5 3601.04 1777.44 3604.79 1777.44L3617.6 1777.44C3619.59 1777.44 3621.47 1778.32 3622.76 1779.84 3629.46 1787.73 3639.2 1792.25 3649.5 1792.25 3668.87 1792.25 3684.63 1776.41 3684.63 1756.94 3684.63 1737.46 3668.87 1721.62 3649.5 1721.62 3639.71 1721.62 3630.62 1725.58 3623.9 1732.76 3622.62 1734.13 3620.83 1734.91 3618.96 1734.91L3604.79 1734.91C3601.04 1734.91 3598 1731.85 3598 1728.08L3598 1640.82C3598 1637.05 3601.04 1634 3604.79 1634L3830.21 1634C3833.96 1634 3837 1637.05 3837 1640.82L3837 1865.56C3837 1869.33 3833.96 1872.38 3830.21 1872.38L3769.93 1872.38 3769.93 1876.51C3778.36 1885.55 3783.15 1897.6 3783.15 1910.04 3783.15 1937.04 3761.3 1959 3734.44 1959 3707.58 1959 3685.73 1937.04 3685.73 1910.04 3685.73 1896.77 3691.07 1884.16 3700.47 1874.96L3700.47 1872.38 3604.79 1872.38C3601.04 1872.38 3598 1869.33 3598 1865.56Z" fill="#F7F5F7" fill-rule="evenodd"/><path d="M3783.15 1910.05C3783.15 1897.62 3778.36 1885.57 3769.93 1876.54L3769.93 1872.41 3830.21 1872.41C3833.96 1872.41 3837 1869.36 3837 1865.59L3837 1757 3684.63 1757C3684.63 1776.47 3668.87 1792.3 3649.5 1792.3 3639.2 1792.3 3629.46 1787.78 3622.76 1779.9 3621.47 1778.38 3619.58 1777.5 3617.6 1777.5L3604.79 1777.5C3601.04 1777.5 3598 1780.55 3598 1784.32L3598 1865.59C3598 1869.36 3601.04 1872.41 3604.79 1872.41L3700.47 1872.41 3700.47 1874.99C3691.07 1884.18 3685.73 1896.79 3685.73 1910.05 3685.73 1937.04 3707.58 1959 3734.44 1959 3761.3 1959 3783.15 1937.04 3783.15 1910.05Z" fill="#F7F5F7" fill-rule="evenodd"/></g></svg>