<?xml version="1.0" encoding="UTF-8"?><svg xmlns="http://www.w3.org/2000/svg" xmlns:xlink="http://www.w3.org/1999/xlink" contentScriptType="text/ecmascript" width="375" zoomAndPan="magnify" contentStyleType="text/css" viewBox="0 0 375 374.999991" height="374.999991" preserveAspectRatio="xMidYMid meet" version="1.0"><defs><filter x="0%" y="0%" width="100%" xmlns:xlink="http://www.w3.org/1999/xlink" xlink:type="simple" xlink:actuate="onLoad" height="100%" id="filter-remove-color" xlink:show="other"><feColorMatrix values="0 0 0 0 1 0 0 0 0 1 0 0 0 0 1 0 0 0 1 0" color-interpolation-filters="sRGB"/></filter><mask id="mask-0"><g filter="url(#filter-remove-color)"><rect x="-37.5" width="450" fill="rgb(0%, 0%, 0%)" y="-37.499999" height="449.999989" fill-opacity="0.1569"/></g></mask><clipPath id="clip-0"><path d="M 0.238281 0.238281 L 363 0.238281 L 363 363 L 0.238281 363 Z M 0.238281 0.238281 " clip-rule="nonzero"/></clipPath><clipPath id="clip-1"><rect x="0" width="364" y="0" height="364"/></clipPath><clipPath id="clip-2"><path d="M 69.550781 66.511719 L 311.800781 66.511719 L 311.800781 308.761719 L 69.550781 308.761719 Z M 69.550781 66.511719 " clip-rule="nonzero"/></clipPath></defs><rect x="-37.5" width="450" fill="rgb(100%, 100%, 100%)" y="-37.499999" height="449.999989" fill-opacity="1"/><rect x="-37.5" width="450" fill="rgb(100%, 100%, 100%)" y="-37.499999" height="449.999989" fill-opacity="1"/><rect x="-37.5" width="450" fill="rgb(100%, 100%, 100%)" y="-37.499999" height="449.999989" fill-opacity="1"/><g mask="url(#mask-0)"><g transform="matrix(1, 0, 0, 1, 6, 6)"><g id="source-5" clip-path="url(#clip-1)"><g clip-path="url(#clip-0)"><path fill="rgb(85.099792%, 85.099792%, 85.099792%)" d="M 339.105469 362.660156 L 23.96875 362.660156 C 10.988281 362.660156 0.410156 352.085938 0.410156 339.105469 L 0.410156 23.96875 C 0.410156 10.988281 10.988281 0.410156 23.96875 0.410156 L 339.105469 0.410156 C 352.085938 0.410156 362.660156 10.988281 362.660156 23.96875 L 362.660156 339.105469 C 362.660156 352.085938 352.085938 362.660156 339.105469 362.660156 Z M 339.105469 362.660156 " fill-opacity="1" fill-rule="nonzero"/></g></g></g></g><g clip-path="url(#clip-2)"><path fill="rgb(65.098572%, 65.098572%, 65.098572%)" d="M 190.675781 66.511719 C 123.882812 66.511719 69.550781 120.847656 69.550781 187.636719 C 69.550781 225.308594 86.542969 260.089844 116.113281 283.03125 C 133.140625 296.425781 153.402344 304.957031 174.566406 307.65625 C 179.808594 308.398438 185.242188 308.761719 190.675781 308.761719 C 196.109375 308.761719 201.542969 308.398438 206.644531 307.671875 C 227.945312 304.957031 248.207031 296.441406 265.199219 283.066406 C 294.824219 260.089844 311.800781 225.289062 311.800781 187.636719 C 311.800781 120.847656 257.449219 66.511719 190.675781 66.511719 Z M 259.890625 264.777344 L 259.890625 253.046875 C 259.890625 236.089844 228.914062 222.246094 190.675781 222.246094 C 152.433594 222.246094 121.460938 236.089844 121.460938 253.046875 L 121.460938 264.777344 C 99.46875 245.207031 86.851562 217.539062 86.851562 187.636719 C 86.851562 130.378906 133.417969 83.816406 190.675781 83.816406 C 247.933594 83.816406 294.496094 130.378906 294.496094 187.636719 C 294.496094 217.519531 281.898438 245.15625 259.890625 264.777344 Z M 259.890625 264.777344 " fill-opacity="1" fill-rule="nonzero"/></g><path fill="rgb(65.098572%, 65.098572%, 65.098572%)" d="M 233.933594 161.683594 C 233.933594 163.097656 233.863281 164.511719 233.726562 165.921875 C 233.585938 167.332031 233.378906 168.730469 233.101562 170.121094 C 232.824219 171.511719 232.480469 172.882812 232.070312 174.238281 C 231.660156 175.597656 231.183594 176.929688 230.640625 178.238281 C 230.097656 179.546875 229.492188 180.824219 228.824219 182.074219 C 228.15625 183.324219 227.429688 184.539062 226.644531 185.714844 C 225.855469 186.894531 225.011719 188.03125 224.113281 189.125 C 223.214844 190.222656 222.265625 191.269531 221.261719 192.269531 C 220.261719 193.273438 219.214844 194.222656 218.117188 195.121094 C 217.023438 196.019531 215.886719 196.863281 214.707031 197.652344 C 213.53125 198.4375 212.316406 199.164062 211.066406 199.832031 C 209.816406 200.5 208.539062 201.105469 207.230469 201.648438 C 205.921875 202.191406 204.585938 202.667969 203.230469 203.078125 C 201.875 203.488281 200.503906 203.832031 199.113281 204.109375 C 197.722656 204.386719 196.324219 204.59375 194.914062 204.734375 C 193.503906 204.871094 192.089844 204.941406 190.675781 204.941406 C 189.257812 204.941406 187.84375 204.871094 186.433594 204.734375 C 185.023438 204.59375 183.625 204.386719 182.234375 204.109375 C 180.84375 203.832031 179.472656 203.488281 178.117188 203.078125 C 176.761719 202.667969 175.429688 202.191406 174.121094 201.648438 C 172.8125 201.105469 171.53125 200.5 170.28125 199.832031 C 169.03125 199.164062 167.820312 198.4375 166.640625 197.652344 C 165.464844 196.863281 164.328125 196.019531 163.230469 195.121094 C 162.136719 194.222656 161.085938 193.273438 160.085938 192.269531 C 159.085938 191.269531 158.132812 190.222656 157.234375 189.125 C 156.335938 188.03125 155.492188 186.894531 154.707031 185.714844 C 153.917969 184.539062 153.191406 183.324219 152.523438 182.074219 C 151.855469 180.824219 151.25 179.546875 150.707031 178.238281 C 150.167969 176.929688 149.691406 175.597656 149.277344 174.238281 C 148.867188 172.882812 148.523438 171.511719 148.246094 170.121094 C 147.96875 168.730469 147.761719 167.332031 147.625 165.921875 C 147.484375 164.511719 147.414062 163.097656 147.414062 161.683594 C 147.414062 160.265625 147.484375 158.851562 147.625 157.441406 C 147.761719 156.03125 147.96875 154.632812 148.246094 153.242188 C 148.523438 151.855469 148.867188 150.480469 149.277344 149.125 C 149.691406 147.769531 150.167969 146.4375 150.707031 145.128906 C 151.25 143.820312 151.855469 142.539062 152.523438 141.289062 C 153.191406 140.039062 153.917969 138.828125 154.707031 137.648438 C 155.492188 136.472656 156.335938 135.335938 157.234375 134.238281 C 158.132812 133.144531 159.085938 132.097656 160.085938 131.09375 C 161.085938 130.09375 162.136719 129.140625 163.230469 128.242188 C 164.328125 127.34375 165.464844 126.5 166.640625 125.714844 C 167.820312 124.925781 169.03125 124.199219 170.28125 123.53125 C 171.53125 122.863281 172.8125 122.257812 174.121094 121.714844 C 175.429688 121.175781 176.761719 120.699219 178.117188 120.285156 C 179.472656 119.875 180.84375 119.53125 182.234375 119.253906 C 183.625 118.976562 185.023438 118.769531 186.433594 118.632812 C 187.84375 118.492188 189.257812 118.421875 190.675781 118.421875 C 192.089844 118.421875 193.503906 118.492188 194.914062 118.632812 C 196.324219 118.769531 197.722656 118.976562 199.113281 119.253906 C 200.503906 119.53125 201.875 119.875 203.230469 120.285156 C 204.585938 120.699219 205.921875 121.175781 207.230469 121.714844 C 208.539062 122.257812 209.816406 122.863281 211.066406 123.53125 C 212.316406 124.199219 213.53125 124.925781 214.707031 125.714844 C 215.886719 126.5 217.023438 127.34375 218.117188 128.242188 C 219.214844 129.140625 220.261719 130.09375 221.261719 131.09375 C 222.265625 132.097656 223.214844 133.144531 224.113281 134.238281 C 225.011719 135.335938 225.855469 136.472656 226.644531 137.648438 C 227.429688 138.828125 228.15625 140.039062 228.824219 141.289062 C 229.492188 142.539062 230.097656 143.820312 230.640625 145.128906 C 231.183594 146.4375 231.660156 147.769531 232.070312 149.125 C 232.480469 150.480469 232.824219 151.855469 233.101562 153.242188 C 233.378906 154.632812 233.585938 156.03125 233.726562 157.441406 C 233.863281 158.851562 233.933594 160.265625 233.933594 161.683594 Z M 233.933594 161.683594 " fill-opacity="1" fill-rule="nonzero"/></svg>