<?xml version="1.0" encoding="UTF-8"?><svg xmlns="http://www.w3.org/2000/svg" xmlns:xlink="http://www.w3.org/1999/xlink" contentScriptType="text/ecmascript" width="375" zoomAndPan="magnify" contentStyleType="text/css" viewBox="0 0 375 374.999991" height="374.999991" preserveAspectRatio="xMidYMid meet" version="1.0"><defs><filter x="0%" y="0%" width="100%" xmlns:xlink="http://www.w3.org/1999/xlink" xlink:type="simple" xlink:actuate="onLoad" height="100%" id="filter-remove-color" xlink:show="other"><feColorMatrix values="0 0 0 0 1 0 0 0 0 1 0 0 0 0 1 0 0 0 1 0" color-interpolation-filters="sRGB"/></filter><mask id="mask-0"><g filter="url(#filter-remove-color)"><rect x="-37.5" width="450" fill="rgb(0%, 0%, 0%)" y="-37.499999" height="449.999989" fill-opacity="0.1569"/></g></mask><clipPath id="clip-0"><path d="M 0.238281 0.238281 L 363 0.238281 L 363 363 L 0.238281 363 Z M 0.238281 0.238281 " clip-rule="nonzero"/></clipPath><clipPath id="clip-1"><rect x="0" width="364" y="0" height="364"/></clipPath><clipPath id="clip-2"><path d="M 175 111.257812 L 199 111.257812 L 199 135 L 175 135 Z M 175 111.257812 " clip-rule="nonzero"/></clipPath><clipPath id="clip-3"><path d="M 168 236 L 207 236 L 207 255.257812 L 168 255.257812 Z M 168 236 " clip-rule="nonzero"/></clipPath><clipPath id="clip-4"><path d="M 114.230469 236 L 153 236 L 153 255.257812 L 114.230469 255.257812 Z M 114.230469 236 " clip-rule="nonzero"/></clipPath><clipPath id="clip-5"><path d="M 222 236 L 260.480469 236 L 260.480469 255.257812 L 222 255.257812 Z M 222 236 " clip-rule="nonzero"/></clipPath></defs><rect x="-37.5" width="450" fill="rgb(100%, 100%, 100%)" y="-37.499999" height="449.999989" fill-opacity="1"/><rect x="-37.5" width="450" fill="rgb(100%, 100%, 100%)" y="-37.499999" height="449.999989" fill-opacity="1"/><g mask="url(#mask-0)"><g transform="matrix(1, 0, 0, 1, 6, 6)"><g id="source-5" clip-path="url(#clip-1)"><g clip-path="url(#clip-0)"><path fill="rgb(85.099792%, 85.099792%, 85.099792%)" d="M 339.105469 362.660156 L 23.96875 362.660156 C 10.988281 362.660156 0.410156 352.085938 0.410156 339.105469 L 0.410156 23.96875 C 0.410156 10.988281 10.988281 0.410156 23.96875 0.410156 L 339.105469 0.410156 C 352.085938 0.410156 362.660156 10.988281 362.660156 23.96875 L 362.660156 339.105469 C 362.660156 352.085938 352.085938 362.660156 339.105469 362.660156 Z M 339.105469 362.660156 " fill-opacity="1" fill-rule="nonzero"/></g></g></g></g><path fill="rgb(65.098572%, 65.098572%, 65.098572%)" d="M 206.394531 155.902344 C 206.175781 145.519531 197.738281 137.085938 187.355469 137.085938 C 176.96875 137.085938 168.53125 145.519531 168.316406 155.902344 C 168.316406 155.902344 206.394531 155.902344 206.394531 155.902344 Z M 206.394531 155.902344 " fill-opacity="1" fill-rule="nonzero"/><g clip-path="url(#clip-2)"><path fill="rgb(65.098572%, 65.098572%, 65.098572%)" d="M 198.820312 122.816406 C 198.820312 123.566406 198.75 124.3125 198.601562 125.050781 C 198.453125 125.789062 198.238281 126.503906 197.949219 127.199219 C 197.660156 127.894531 197.308594 128.558594 196.890625 129.183594 C 196.472656 129.808594 195.996094 130.386719 195.464844 130.917969 C 194.929688 131.453125 194.351562 131.925781 193.726562 132.34375 C 193.097656 132.761719 192.4375 133.117188 191.742188 133.402344 C 191.046875 133.691406 190.332031 133.910156 189.59375 134.054688 C 188.855469 134.203125 188.109375 134.277344 187.355469 134.277344 C 186.601562 134.277344 185.855469 134.203125 185.117188 134.054688 C 184.378906 133.910156 183.664062 133.691406 182.96875 133.402344 C 182.273438 133.117188 181.609375 132.761719 180.984375 132.34375 C 180.359375 131.925781 179.78125 131.453125 179.246094 130.917969 C 178.714844 130.386719 178.238281 129.808594 177.820312 129.183594 C 177.402344 128.558594 177.050781 127.894531 176.761719 127.199219 C 176.472656 126.503906 176.257812 125.789062 176.109375 125.050781 C 175.960938 124.3125 175.890625 123.566406 175.890625 122.816406 C 175.890625 122.0625 175.960938 121.316406 176.109375 120.578125 C 176.257812 119.839844 176.472656 119.125 176.761719 118.429688 C 177.050781 117.734375 177.402344 117.074219 177.820312 116.449219 C 178.238281 115.820312 178.714844 115.242188 179.246094 114.710938 C 179.78125 114.179688 180.359375 113.703125 180.984375 113.285156 C 181.609375 112.867188 182.273438 112.515625 182.96875 112.226562 C 183.664062 111.9375 184.378906 111.71875 185.117188 111.574219 C 185.855469 111.425781 186.601562 111.355469 187.355469 111.355469 C 188.109375 111.355469 188.855469 111.425781 189.59375 111.574219 C 190.332031 111.71875 191.046875 111.9375 191.742188 112.226562 C 192.4375 112.515625 193.097656 112.867188 193.726562 113.285156 C 194.351562 113.703125 194.929688 114.179688 195.464844 114.710938 C 195.996094 115.242188 196.472656 115.820312 196.890625 116.449219 C 197.308594 117.074219 197.660156 117.734375 197.949219 118.429688 C 198.238281 119.125 198.453125 119.839844 198.601562 120.578125 C 198.75 121.316406 198.820312 122.0625 198.820312 122.816406 Z M 198.820312 122.816406 " fill-opacity="1" fill-rule="nonzero"/></g><g clip-path="url(#clip-3)"><path fill="rgb(65.098572%, 65.098572%, 65.098572%)" d="M 206.394531 255.160156 C 206.175781 244.78125 197.738281 236.347656 187.355469 236.347656 C 176.96875 236.347656 168.53125 244.78125 168.316406 255.160156 Z M 206.394531 255.160156 " fill-opacity="1" fill-rule="nonzero"/></g><path fill="rgb(65.098572%, 65.098572%, 65.098572%)" d="M 198.820312 222.074219 C 198.820312 222.828125 198.75 223.574219 198.601562 224.308594 C 198.453125 225.046875 198.238281 225.765625 197.949219 226.460938 C 197.660156 227.15625 197.308594 227.816406 196.890625 228.441406 C 196.472656 229.066406 195.996094 229.648438 195.464844 230.179688 C 194.929688 230.710938 194.351562 231.1875 193.726562 231.605469 C 193.097656 232.023438 192.4375 232.375 191.742188 232.664062 C 191.046875 232.953125 190.332031 233.167969 189.59375 233.316406 C 188.855469 233.460938 188.109375 233.535156 187.355469 233.535156 C 186.601562 233.535156 185.855469 233.460938 185.117188 233.316406 C 184.378906 233.167969 183.664062 232.953125 182.96875 232.664062 C 182.273438 232.375 181.609375 232.023438 180.984375 231.605469 C 180.359375 231.1875 179.78125 230.710938 179.246094 230.179688 C 178.714844 229.648438 178.238281 229.066406 177.820312 228.441406 C 177.402344 227.816406 177.050781 227.15625 176.761719 226.460938 C 176.472656 225.765625 176.257812 225.046875 176.109375 224.308594 C 175.960938 223.574219 175.890625 222.828125 175.890625 222.074219 C 175.890625 221.320312 175.960938 220.578125 176.109375 219.839844 C 176.257812 219.101562 176.472656 218.382812 176.761719 217.6875 C 177.050781 216.992188 177.402344 216.332031 177.820312 215.707031 C 178.238281 215.082031 178.714844 214.503906 179.246094 213.96875 C 179.78125 213.4375 180.359375 212.960938 180.984375 212.542969 C 181.609375 212.125 182.273438 211.773438 182.96875 211.484375 C 183.664062 211.199219 184.378906 210.980469 185.117188 210.832031 C 185.855469 210.6875 186.601562 210.613281 187.355469 210.613281 C 188.109375 210.613281 188.855469 210.6875 189.59375 210.832031 C 190.332031 210.980469 191.046875 211.199219 191.742188 211.484375 C 192.4375 211.773438 193.097656 212.125 193.726562 212.542969 C 194.351562 212.960938 194.929688 213.4375 195.464844 213.96875 C 195.996094 214.503906 196.472656 215.082031 196.890625 215.707031 C 197.308594 216.332031 197.660156 216.992188 197.949219 217.6875 C 198.238281 218.382812 198.453125 219.101562 198.601562 219.839844 C 198.75 220.578125 198.820312 221.320312 198.820312 222.074219 Z M 198.820312 222.074219 " fill-opacity="1" fill-rule="nonzero"/><g clip-path="url(#clip-4)"><path fill="rgb(65.098572%, 65.098572%, 65.098572%)" d="M 152.308594 255.160156 C 152.089844 244.78125 143.652344 236.347656 133.269531 236.347656 C 122.882812 236.347656 114.445312 244.78125 114.230469 255.160156 Z M 152.308594 255.160156 " fill-opacity="1" fill-rule="nonzero"/></g><path fill="rgb(65.098572%, 65.098572%, 65.098572%)" d="M 144.734375 222.074219 C 144.734375 222.828125 144.660156 223.574219 144.515625 224.308594 C 144.367188 225.046875 144.148438 225.765625 143.863281 226.460938 C 143.574219 227.15625 143.222656 227.816406 142.800781 228.441406 C 142.382812 229.066406 141.910156 229.648438 141.375 230.179688 C 140.84375 230.710938 140.265625 231.1875 139.640625 231.605469 C 139.011719 232.023438 138.351562 232.375 137.65625 232.664062 C 136.960938 232.953125 136.242188 233.167969 135.503906 233.316406 C 134.765625 233.460938 134.023438 233.535156 133.269531 233.535156 C 132.515625 233.535156 131.769531 233.460938 131.03125 233.316406 C 130.292969 233.167969 129.578125 232.953125 128.878906 232.664062 C 128.183594 232.375 127.523438 232.023438 126.898438 231.605469 C 126.273438 231.1875 125.691406 230.710938 125.160156 230.179688 C 124.628906 229.648438 124.152344 229.066406 123.734375 228.441406 C 123.316406 227.816406 122.964844 227.15625 122.675781 226.460938 C 122.386719 225.765625 122.167969 225.046875 122.023438 224.308594 C 121.875 223.574219 121.800781 222.828125 121.800781 222.074219 C 121.800781 221.320312 121.875 220.578125 122.023438 219.839844 C 122.167969 219.101562 122.386719 218.382812 122.675781 217.6875 C 122.964844 216.992188 123.316406 216.332031 123.734375 215.707031 C 124.152344 215.082031 124.628906 214.503906 125.160156 213.96875 C 125.691406 213.4375 126.273438 212.960938 126.898438 212.542969 C 127.523438 212.125 128.183594 211.773438 128.878906 211.484375 C 129.578125 211.199219 130.292969 210.980469 131.03125 210.832031 C 131.769531 210.6875 132.515625 210.613281 133.269531 210.613281 C 134.023438 210.613281 134.765625 210.6875 135.503906 210.832031 C 136.242188 210.980469 136.960938 211.199219 137.65625 211.484375 C 138.351562 211.773438 139.011719 212.125 139.640625 212.542969 C 140.265625 212.960938 140.84375 213.4375 141.375 213.96875 C 141.910156 214.503906 142.382812 215.082031 142.800781 215.707031 C 143.222656 216.332031 143.574219 216.992188 143.863281 217.6875 C 144.148438 218.382812 144.367188 219.101562 144.515625 219.839844 C 144.660156 220.578125 144.734375 221.320312 144.734375 222.074219 Z M 144.734375 222.074219 " fill-opacity="1" fill-rule="nonzero"/><g clip-path="url(#clip-5)"><path fill="rgb(65.098572%, 65.098572%, 65.098572%)" d="M 260.480469 255.160156 C 260.265625 244.78125 251.828125 236.347656 241.441406 236.347656 C 231.058594 236.347656 222.621094 244.78125 222.402344 255.160156 Z M 260.480469 255.160156 " fill-opacity="1" fill-rule="nonzero"/></g><path fill="rgb(65.098572%, 65.098572%, 65.098572%)" d="M 252.90625 222.074219 C 252.90625 222.828125 252.835938 223.574219 252.6875 224.308594 C 252.539062 225.046875 252.324219 225.765625 252.035156 226.460938 C 251.746094 227.15625 251.394531 227.816406 250.976562 228.441406 C 250.558594 229.066406 250.082031 229.648438 249.550781 230.179688 C 249.015625 230.710938 248.4375 231.1875 247.8125 231.605469 C 247.1875 232.023438 246.523438 232.375 245.828125 232.664062 C 245.132812 232.953125 244.417969 233.167969 243.679688 233.316406 C 242.941406 233.460938 242.195312 233.535156 241.441406 233.535156 C 240.6875 233.535156 239.941406 233.460938 239.203125 233.316406 C 238.464844 233.167969 237.75 232.953125 237.054688 232.664062 C 236.359375 232.375 235.699219 232.023438 235.070312 231.605469 C 234.445312 231.1875 233.867188 230.710938 233.332031 230.179688 C 232.800781 229.648438 232.324219 229.066406 231.90625 228.441406 C 231.488281 227.816406 231.136719 227.15625 230.847656 226.460938 C 230.558594 225.765625 230.34375 225.046875 230.195312 224.308594 C 230.050781 223.574219 229.976562 222.828125 229.976562 222.074219 C 229.976562 221.320312 230.050781 220.578125 230.195312 219.839844 C 230.34375 219.101562 230.558594 218.382812 230.847656 217.6875 C 231.136719 216.992188 231.488281 216.332031 231.90625 215.707031 C 232.324219 215.082031 232.800781 214.503906 233.332031 213.96875 C 233.867188 213.4375 234.445312 212.960938 235.070312 212.542969 C 235.699219 212.125 236.359375 211.773438 237.054688 211.484375 C 237.75 211.199219 238.464844 210.980469 239.203125 210.832031 C 239.941406 210.6875 240.6875 210.613281 241.441406 210.613281 C 242.195312 210.613281 242.941406 210.6875 243.679688 210.832031 C 244.417969 210.980469 245.132812 211.199219 245.828125 211.484375 C 246.523438 211.773438 247.1875 212.125 247.8125 212.542969 C 248.4375 212.960938 249.015625 213.4375 249.550781 213.96875 C 250.082031 214.503906 250.558594 215.082031 250.976562 215.707031 C 251.394531 216.332031 251.746094 216.992188 252.035156 217.6875 C 252.324219 218.382812 252.539062 219.101562 252.6875 219.839844 C 252.835938 220.578125 252.90625 221.320312 252.90625 222.074219 Z M 252.90625 222.074219 " fill-opacity="1" fill-rule="nonzero"/><path fill="rgb(65.098572%, 65.098572%, 65.098572%)" d="M 241.441406 174.066406 L 189.519531 174.066406 L 189.519531 161.523438 C 189.519531 160.226562 188.652344 159.363281 187.355469 159.363281 C 186.058594 159.363281 185.191406 160.226562 185.191406 161.523438 L 185.191406 174.066406 L 133.269531 174.066406 C 131.96875 174.066406 131.105469 174.929688 131.105469 176.230469 L 131.105469 199.585938 C 131.105469 200.882812 131.96875 201.746094 133.269531 201.746094 C 134.566406 201.746094 135.433594 200.882812 135.433594 199.585938 L 135.433594 178.390625 L 185.191406 178.390625 L 185.191406 199.585938 C 185.191406 200.882812 186.058594 201.746094 187.355469 201.746094 C 188.652344 201.746094 189.519531 200.882812 189.519531 199.585938 L 189.519531 178.390625 L 239.277344 178.390625 L 239.277344 199.585938 C 239.277344 200.882812 240.144531 201.746094 241.441406 201.746094 C 242.738281 201.746094 243.605469 200.882812 243.605469 199.585938 L 243.605469 176.230469 C 243.605469 174.929688 242.523438 174.066406 241.441406 174.066406 Z M 241.441406 174.066406 " fill-opacity="1" fill-rule="nonzero"/><path fill="rgb(65.098572%, 65.098572%, 65.098572%)" d="M 188.242188 309.707031 C 154.953125 309.707031 123.609375 296.75 100.085938 273.175781 C 76.515625 249.65625 63.558594 218.308594 63.558594 185.019531 C 63.558594 151.730469 76.515625 120.382812 100.085938 96.863281 C 123.609375 73.289062 154.953125 60.332031 188.242188 60.332031 C 221.535156 60.332031 252.878906 73.289062 276.402344 96.863281 C 299.972656 120.433594 312.929688 151.730469 312.929688 185.019531 C 312.929688 218.308594 299.972656 249.65625 276.402344 273.175781 C 252.878906 296.75 221.535156 309.707031 188.242188 309.707031 Z M 188.242188 67.808594 C 156.949219 67.808594 127.496094 80.015625 105.367188 102.144531 C 83.242188 124.269531 71.03125 153.722656 71.03125 185.019531 C 71.03125 216.316406 83.242188 245.769531 105.367188 267.894531 C 127.496094 290.019531 156.949219 302.230469 188.242188 302.230469 C 219.539062 302.230469 248.992188 290.019531 271.117188 267.894531 C 293.246094 245.769531 305.457031 216.316406 305.457031 185.019531 C 305.457031 153.722656 293.246094 124.269531 271.117188 102.144531 C 248.992188 80.015625 219.539062 67.808594 188.242188 67.808594 Z M 188.242188 67.808594 " fill-opacity="1" fill-rule="nonzero"/><path fill="rgb(65.098572%, 65.098572%, 65.098572%)" d="M 188.246094 309.710938 C 155.816406 309.710938 125.28125 297.089844 102.367188 274.125 C 79.402344 251.210938 66.78125 220.675781 66.78125 188.246094 C 66.78125 155.816406 79.402344 125.28125 102.367188 102.367188 C 125.28125 79.402344 155.816406 66.78125 188.246094 66.78125 C 220.675781 66.78125 251.210938 79.402344 274.125 102.367188 C 297.089844 125.328125 309.710938 155.816406 309.710938 188.246094 C 309.710938 220.675781 297.089844 251.210938 274.125 274.125 C 251.210938 297.089844 220.675781 309.710938 188.246094 309.710938 Z M 188.246094 74.0625 C 157.757812 74.0625 129.066406 85.957031 107.511719 107.511719 C 85.957031 129.066406 74.0625 157.757812 74.0625 188.246094 C 74.0625 218.734375 85.957031 247.425781 107.511719 268.980469 C 129.066406 290.535156 157.757812 302.429688 188.246094 302.429688 C 218.734375 302.429688 247.425781 290.535156 268.980469 268.980469 C 290.535156 247.425781 302.429688 218.734375 302.429688 188.246094 C 302.429688 157.757812 290.535156 129.066406 268.980469 107.511719 C 247.425781 85.957031 218.734375 74.0625 188.246094 74.0625 Z M 188.246094 74.0625 " fill-opacity="1" fill-rule="nonzero"/><path fill="rgb(65.098572%, 65.098572%, 65.098572%)" d="M 187.398438 316.058594 C 153.046875 316.058594 120.703125 302.6875 96.429688 278.363281 C 72.105469 254.09375 58.738281 221.746094 58.738281 187.398438 C 58.738281 153.046875 72.105469 120.703125 96.429688 96.429688 C 120.703125 72.105469 153.046875 58.738281 187.398438 58.738281 C 221.746094 58.738281 254.09375 72.105469 278.363281 96.429688 C 302.6875 120.753906 316.058594 153.046875 316.058594 187.398438 C 316.058594 221.746094 302.6875 254.09375 278.363281 278.363281 C 254.09375 302.6875 221.746094 316.058594 187.398438 316.058594 Z M 187.398438 66.449219 C 155.105469 66.449219 124.710938 79.050781 101.882812 101.882812 C 79.050781 124.710938 66.449219 155.105469 66.449219 187.398438 C 66.449219 219.691406 79.050781 250.082031 101.882812 272.914062 C 124.710938 295.746094 155.105469 308.34375 187.398438 308.34375 C 219.691406 308.34375 250.082031 295.746094 272.914062 272.914062 C 295.746094 250.082031 308.34375 219.691406 308.34375 187.398438 C 308.34375 155.105469 295.746094 124.710938 272.914062 101.882812 C 250.082031 79.050781 219.691406 66.449219 187.398438 66.449219 Z M 187.398438 66.449219 " fill-opacity="1" fill-rule="nonzero"/></svg>