<svg width="586" height="587" xmlns="http://www.w3.org/2000/svg" xmlns:xlink="http://www.w3.org/1999/xlink" overflow="hidden"><defs><clipPath id="clip0"><rect x="2361" y="1487" width="586" height="587"/></clipPath></defs><g clip-path="url(#clip0)" transform="translate(-2361 -1487)"><path d="M2365.5 1543.26C2365.5 1514.67 2388.67 1491.5 2417.26 1491.5L2890.74 1491.5C2919.33 1491.5 2942.5 1514.67 2942.5 1543.26L2942.5 2017.74C2942.5 2046.33 2919.33 2069.5 2890.74 2069.5L2417.26 2069.5C2388.67 2069.5 2365.5 2046.33 2365.5 2017.74Z" stroke="#D8D9D8" stroke-width="9.16667" stroke-linejoin="round" stroke-miterlimit="10" fill="#4C9898" fill-rule="evenodd"/><path d="M2502 1912.91 2502 1712.38C2502 1709.02 2504.94 1706.29 2508.56 1706.29L2583.78 1706.29 2583.78 1703.99C2574.69 1695.78 2569.54 1684.53 2569.54 1672.69 2569.54 1648.6 2590.66 1629 2616.63 1629 2642.59 1629 2663.71 1648.6 2663.71 1672.69 2663.71 1683.79 2659.09 1694.54 2650.94 1702.6L2650.94 1706.29 2724.69 1706.29C2728.31 1706.29 2731.25 1709.02 2731.25 1712.38L2731.25 1784.15 2735.67 1784.15C2744.36 1776.59 2755.95 1772.3 2767.91 1772.3 2793.88 1772.3 2815 1791.9 2815 1815.99 2815 1840.08 2793.88 1859.68 2767.91 1859.68 2755.15 1859.68 2743.02 1854.89 2734.18 1846.46L2731.25 1846.46 2731.25 1912.91C2731.25 1916.27 2728.31 1919 2724.69 1919L2644.37 1919C2640.75 1919 2637.81 1916.27 2637.81 1912.91L2637.81 1900.62C2637.81 1898.94 2638.56 1897.34 2639.88 1896.18 2646.78 1890.16 2650.58 1882.01 2650.58 1873.22 2650.58 1855.85 2635.35 1841.71 2616.62 1841.71 2597.9 1841.71 2582.66 1855.85 2582.66 1873.22 2582.66 1882.46 2587.01 1891.2 2594.6 1897.21 2596.06 1898.36 2596.9 1900.06 2596.9 1901.84L2596.9 1912.91C2596.9 1916.27 2593.97 1919 2590.34 1919L2508.56 1919C2504.94 1919 2502 1916.27 2502 1912.91Z" fill="#F7F5F7" fill-rule="evenodd"/><path d="M2650.58 1873.23C2650.58 1882.01 2646.78 1890.17 2639.88 1896.19 2638.56 1897.34 2637.81 1898.94 2637.81 1900.62L2637.81 1912.91C2637.81 1916.27 2640.75 1919 2644.37 1919L2724.69 1919C2728.31 1919 2731.25 1916.27 2731.25 1912.91L2731.25 1846.47 2734.18 1846.47C2743.02 1854.9 2755.15 1859.68 2767.91 1859.68 2793.88 1859.68 2815 1840.09 2815 1816L2502 1816 2502 1912.91C2502 1916.27 2504.94 1919 2508.56 1919L2590.34 1919C2593.97 1919 2596.9 1916.27 2596.9 1912.91L2596.9 1901.84C2596.9 1900.06 2596.06 1898.37 2594.6 1897.21 2587.02 1891.21 2582.67 1882.47 2582.67 1873.23 2582.67 1855.86 2597.9 1841.72 2616.63 1841.72 2635.35 1841.72 2650.58 1855.86 2650.58 1873.23Z" fill="#F7F5F7" fill-rule="evenodd"/></g></svg>