<?xml version="1.0" encoding="UTF-8" standalone="no"?>
<svg
   xmlns:dc="http://purl.org/dc/elements/1.1/"
   xmlns:cc="http://creativecommons.org/ns#"
   xmlns:rdf="http://www.w3.org/1999/02/22-rdf-syntax-ns#"
   xmlns:svg="http://www.w3.org/2000/svg"
   xmlns="http://www.w3.org/2000/svg"
   id="svg13"
   version="1.1"
   height="36"
   width="170">
  <metadata
     id="metadata19">
    <rdf:RDF>
      <cc:Work
         rdf:about="">
        <dc:format>image/svg+xml</dc:format>
        <dc:type
           rdf:resource="http://purl.org/dc/dcmitype/StillImage" />
      </cc:Work>
    </rdf:RDF>
  </metadata>
  <defs
     id="defs17" />
  <g
     id="g5">
    <title
       id="title2">background</title>
    <path
       id="canvas_background"
       d="M -1,-1 H 171 V 37 H -1 Z"
       style="fill:none" />
  </g>
  <g
     id="g11">
    <title
       id="title7">Layer 1</title>
    <g
       transform="matrix(0.46919225,0,0,0.46919225,34.497501,5)"
       id="svg_1"
       stroke="null">
      <path
         style="fill:#007f7f"
         d="m 257.81525,0 c -12.29306,0 -20.18474,6.5561536 -20.18474,16.622307 0,11.429999 8.97025,14.150769 16.86193,16.546153 5.72113,1.758462 10.67186,3.274615 10.67186,7.913077 0,3.509999 -2.70649,5.593846 -7.26866,5.593846 -5.64744,0 -13.37833,-3.44077 -18.63722,-8.231539 l -4.64256,10.066154 c 6.26377,5.434615 14.85217,8.70923 23.1257,8.70923 12.29307,0 20.25844,-6.632307 20.25844,-16.857691 0,-11.748461 -9.04395,-14.628461 -17.08971,-17.106923 l -0.0737,-0.15923 c -5.57375,-1.758462 -10.44408,-3.274616 -10.44408,-7.746923 0,-2.956154 2.31793,-4.714615 6.26377,-4.714615 4.254,0 10.90633,2.312307 16.39299,5.669999 L 277.61145,5.9953843 C 272.19848,2.2430768 264.85613,0 257.81525,0 Z M 137.23602,0.31846152 c -16.70115,0 -29.30908,12.23307648 -29.30908,28.37076748 0,3.994616 0.77711,7.753846 2.17054,11.187692 3.71137,-29.326152 27.29262,-28.606152 27.29262,-28.606152 v 0.07615 c 5.33928,0 10.36369,2.720769 13.53242,7.033845 l 11.21449,-5.192307 C 157.03221,5.3584613 147.98826,0.31846152 137.23602,0.31846152 Z m 33.33531,0.24230769 V 56.582305 h 10.67186 V 17.106922 l 13.45203,33.79846 h 7.89168 l 13.45203,-33.722306 0.0804,39.475383 H 226.6371 V 0.64384613 L 213.17836,0.56076921 198.64106,35.487691 184.10375,0.56076921 Z M 17.507583,2.4576922 V 3.0392306 49.534613 c 0,2.693077 0.690019,4.880769 2.250937,6.424615 1.554219,1.599231 3.671172,2.312308 6.203477,2.312308 1.125468,0 2.451914,-0.152308 3.912343,-0.45 1.467129,-0.304615 2.719883,-0.685385 3.831953,-1.149231 l 0.42875,-0.173077 -1.225957,-6.452307 -0.643125,0.297692 c -0.616328,0.283846 -1.219257,0.484616 -1.889179,0.63 -0.69002,0.138462 -1.306348,0.207692 -1.755196,0.207692 -1.266152,0 -2.157148,-0.332307 -2.746679,-0.996923 -0.609629,-0.692307 -0.931192,-1.633846 -0.931192,-3.018461 V 2.4576922 Z m -82.507577,1.4884615 v 0.5746153 6.514615 h 42.741015 V 3.9461537 Z m 17.57875,12.6069223 v 41.206152 h 0.562734 7.020781 V 16.553076 Z m 39.5253896,0.664616 c -2.9476566,0 -5.6072456,0.60923 -7.9720706,1.682307 -2.438515,1.066154 -4.508574,2.596154 -6.270468,4.423846 h -0.0067 l -0.0067,0.0069 c -1.775293,1.910769 -3.101738,4.126154 -4.059726,6.556154 v 0.0069 c -0.964688,2.52 -1.406836,5.192307 -1.406836,7.926923 0,2.810769 0.442148,5.476153 1.406836,8.003076 0.951289,2.506154 2.284433,4.721538 4.066426,6.563077 1.701601,1.910769 3.77166,3.440769 6.210175,4.506923 2.371524,1.073077 5.031113,1.606153 7.9653712,1.606153 1.9092773,0 3.7515624,-0.228461 5.5268554,-0.761538 1.7752929,-0.463846 3.33621084,-1.149231 4.8100389,-2.063077 1.4805274,-0.920769 2.7399805,-1.993846 3.8520508,-3.21923 1.1120702,-1.225385 2.0097655,-2.54077 2.6863866,-4.084616 L 9.1737547,47.755382 2.6152196,45.879229 2.4209423,46.343075 c -0.4019531,0.976154 -0.9378906,1.8 -1.60111326,2.492307 l -0.006699,0.0069 -0.0133984,0.01385 c -0.66992186,0.761538 -1.4738281,1.391538 -2.35812494,1.883077 h -0.0067 -0.0067 c -0.9713867,0.574615 -1.929375,0.996923 -2.9543554,1.280769 -1.1053711,0.283846 -2.1303516,0.42923 -3.2290234,0.42923 -1.5877148,0 -3.0816399,-0.283846 -4.4348829,-0.913846 l -0.0067,-0.0069 -0.0134,-0.0069 c -1.359942,-0.560769 -2.585899,-1.405384 -3.68457,-2.540769 l -0.0067,-0.0069 -0.0067,-0.0069 c -1.098672,-1.059231 -1.982969,-2.326154 -2.672988,-3.890769 l -0.0067,-0.0069 v -0.0069 c -0.60293,-1.308462 -0.964688,-2.817692 -1.145567,-4.437692 h 30.977187 v -0.574616 c 0,-0.09692 0.07369,-0.533077 0.07369,-1.045384 0,-0.38077 0.07369,-0.837693 0.07369,-1.481539 0,-2.596153 -0.51584,-5.185384 -1.400137,-7.615384 C 9.1067625,27.463845 7.773618,25.24846 6.1457078,23.413845 v -0.0069 h -0.0067 C 4.4374063,21.57233 2.374047,20.049253 0.015922,18.906945 l -0.00669922,-0.0069 H 0.00252436 C -2.3622998,17.826922 -5.0285888,17.217692 -7.9025536,17.217692 Z m 62.9324594,0 c -2.947656,0 -5.607246,0.60923 -7.97207,1.682307 -2.438515,1.066154 -4.508574,2.596154 -6.270468,4.423846 h -0.0067 l -0.0067,0.0069 c -1.775293,1.910769 -3.101738,4.126154 -4.059726,6.556154 v 0.0069 c -0.964688,2.52 -1.406836,5.192307 -1.406836,7.926923 0,2.810769 0.442148,5.476153 1.406836,8.003076 0.951289,2.506154 2.284433,4.721538 4.066425,6.563077 1.701602,1.910769 3.77166,3.440769 6.203477,4.506923 2.378222,1.073077 5.037812,1.606153 7.97207,1.606153 1.909277,0 3.751562,-0.228461 5.526855,-0.761538 1.775293,-0.463846 3.336211,-1.149231 4.810039,-2.063077 1.480528,-0.920769 2.74668,-1.993846 3.852051,-3.21923 1.11207,-1.225385 2.016465,-2.54077 2.686387,-4.084616 l 0.267969,-0.616154 -6.551836,-1.876153 -0.194278,0.463846 c -0.408652,0.976154 -0.93789,1.8 -1.601113,2.492307 l -0.0134,0.0069 -0.0067,0.01385 c -0.669921,0.761538 -1.480527,1.391538 -2.364824,1.883077 h -0.0067 -0.0067 c -0.971387,0.574615 -1.929375,0.996923 -2.954356,1.280769 -1.105371,0.283846 -2.130351,0.42923 -3.229023,0.42923 -1.587715,0 -3.081641,-0.283846 -4.434883,-0.913846 l -0.0067,-0.0069 -0.0134,-0.0069 C 49.355668,50.960767 48.13641,50.116152 47.037738,48.980767 l -0.0134,-0.0069 -0.0067,-0.0069 c -1.091973,-1.059231 -1.97627,-2.326154 -2.666289,-3.890769 l -0.0067,-0.0069 v -0.0069 C 43.74172,43.753936 43.379962,42.244706 43.199083,40.624706 H 74.17627 V 40.05009 c 0,-0.09692 0.07369,-0.533077 0.07369,-1.045384 0,-0.38077 0.07369,-0.837693 0.07369,-1.481539 0,-2.596153 -0.51584,-5.185384 -1.400137,-7.615384 -0.884297,-2.443846 -2.210742,-4.659231 -3.838652,-6.493846 l -0.0067,-0.0069 h -0.0067 c -1.701601,-1.834615 -3.76496,-3.357692 -6.123085,-4.5 l -0.0067,-0.0069 h -0.0067 C 60.57016,17.826922 57.91057,17.217692 55.036605,17.217692 Z m -62.9324594,6.050769 v 0.0069 c 1.5676172,0 3.0749413,0.353076 4.535371,0.920769 1.3599414,0.567692 2.59259762,1.412307 3.70466791,2.416154 1.08527339,1.05923 1.97626949,2.326153 2.66628899,3.821538 0.6029297,1.315384 1.0048828,2.741538 1.1991602,4.20923 H -19.867358 c 0.16748,-1.488461 0.475644,-2.914615 1.065176,-4.20923 h 0.0067 c 0.696719,-1.44 1.514023,-2.706923 2.599297,-3.759231 1.105371,-1.073077 2.331328,-1.910769 3.764961,-2.478461 h 0.0067 c 1.380039,-0.574616 2.887363,-0.927692 4.5286716,-0.927692 z m 62.9324594,0.0069 c 1.567618,0 3.074942,0.353076 4.535371,0.920769 1.359942,0.567692 2.592598,1.412307 3.704668,2.416154 1.091973,1.05923 1.97627,2.326153 2.666289,3.821538 0.60293,1.315384 1.004883,2.741538 1.199161,4.20923 H 43.065102 c 0.16748,-1.488461 0.468945,-2.907692 1.065176,-4.202307 0.696718,-1.44 1.520722,-2.713846 2.605996,-3.766154 1.105371,-1.066154 2.331328,-1.910769 3.76496,-2.471538 l 0.0067,-0.0069 c 1.380039,-0.574616 2.887363,-0.920769 4.528671,-0.920769 z m 65.109705,5.496922 c -1.23935,3.115385 -3.24912,8.868462 -1.39344,15.023077 0.54264,1.917692 2.09016,5.995384 6.57864,9.830768 1.62121,1.356923 3.3965,2.312308 5.25888,3.032308 2.08346,0.484615 4.3277,0.72 6.64563,0.72 10.67185,0 19.64211,-5.033077 24.74691,-12.863076 l -11.1341,-5.116154 c -3.17543,4.32 -8.19984,7.033846 -13.45873,7.033846 l 0.0804,-0.159231 c -8.89656,0 -17.24379,-7.83 -17.32418,-17.501538 z m -40.349392,4.610769 v 7.096154 h 0.556035 21.732267 v -7.096154 z"
         id="svg_2"
         stroke="null" />
    </g>
  </g>
</svg>
