<svg width="24" height="24" viewBox="0 0 24 24" fill="none" xmlns="http://www.w3.org/2000/svg">
<path d="M23.2463 13.1667C23.0779 13.0275 22.8738 12.9384 22.6572 12.9095C22.4407 12.8806 22.2203 12.9131 22.0213 13.0033C20.7877 13.5679 19.4464 13.8584 18.0897 13.855C15.58 13.852 13.1733 12.8569 11.3943 11.0866C9.61536 9.31639 8.6084 6.91463 8.593 4.405C8.59832 3.61848 8.69622 2.83531 8.88467 2.07167C8.92466 1.86813 8.90966 1.65761 8.84122 1.4618C8.77277 1.26599 8.65336 1.09196 8.49528 0.957657C8.33721 0.82335 8.14618 0.733618 7.94188 0.697704C7.73759 0.66179 7.52741 0.680994 7.333 0.753337C5.50405 1.57573 3.91417 2.84956 2.71272 4.45515C1.51127 6.06074 0.737696 7.9454 0.46466 9.93207C0.191624 11.9187 0.428093 13.9422 1.15185 15.8124C1.87561 17.6826 3.0629 19.3381 4.60219 20.6234C6.14147 21.9087 7.98222 22.7816 9.95152 23.1601C11.9208 23.5386 13.954 23.4103 15.8601 22.7873C17.7662 22.1642 19.4826 21.0668 20.8481 19.5982C22.2136 18.1296 23.1834 16.338 23.6663 14.3917C23.7252 14.1688 23.7167 13.9336 23.6419 13.7155C23.5672 13.4975 23.4295 13.3065 23.2463 13.1667ZM12.163 20.9717C10.2051 20.9579 8.29924 20.3392 6.70649 19.2004C5.11375 18.0615 3.91195 16.4582 3.26563 14.61C2.61932 12.7617 2.56009 10.7589 3.09607 8.87568C3.63204 6.99246 4.737 5.32095 6.25967 4.09V4.405C6.26276 7.54157 7.51012 10.5488 9.72801 12.7667C11.9459 14.9846 14.9531 16.2319 18.0897 16.235C18.9132 16.238 19.7346 16.152 20.5397 15.9783C19.7346 17.5014 18.5289 18.7758 17.0527 19.664C15.5765 20.5522 13.8858 21.0205 12.163 21.0183V20.9717Z" fill="#eec65e"/>
</svg>
